 <svg
        width="125"
        height="125"
        viewBox="0 0 125 125"
        fill="none"
        xmlns="http://www.w3.org/2000/svg"
      >
        <path
          d="M117.968 55.38C117.469 55.7758 116.827 55.9901 116.333 56.0742C116.212 56.6783 115.965 57.0869 115.598 57.2901C115.341 57.4325 115.08 57.4393 114.889 57.4133C114.697 57.8818 114.416 58.1896 114.049 58.3299C113.558 58.5186 113.076 58.3316 112.888 58.2406L94.2465 58.9829L94.5661 64.1272L92.2824 63.3658V72.8429L90.3877 73.4309L89.7313 74.9303L89.6161 74.9711C89.6114 74.9728 89.0681 75.1738 88.9525 75.5841C88.8806 75.8396 88.9878 76.1491 89.2726 76.5049L89.4809 76.7659L88.2987 77.4219V78.9221L87.9229 79.5674L88.5133 79.9679L89.5812 81.9149L90.0293 82.8663L90.613 84.2484C90.8693 84.5562 92.5188 86.6515 91.7633 88.7287C91.6286 89.1002 91.6124 89.3702 91.7183 89.4692C91.9483 89.6839 92.8193 89.4624 93.3588 89.2214L93.6381 89.7086C93.409 89.8722 93.1828 90.1213 93.1786 90.214C93.1837 90.2123 93.3074 90.3309 93.9986 90.3309C94.0747 90.3309 94.158 90.3292 94.2482 90.325C95.2017 90.2918 95.8542 90.5112 96.1816 90.9852C96.4498 91.3729 96.4226 91.8239 96.3635 92.1126C96.8915 92.2988 98.0372 92.8208 98.7956 94.0333C99.3376 94.9014 99.6501 95.3146 99.98 95.7512C100.21 96.0564 100.449 96.3723 100.767 96.8497C101.627 98.1395 102.981 99.5134 104.547 98.7304C104.711 98.6479 104.851 98.5748 104.972 98.5114C105.836 98.0604 105.965 98.0732 106.7 98.6738C107.101 99.0029 107.772 99.5513 109.055 100.342C112.512 102.469 115.751 99.8276 115.783 99.8004L118.383 97.9477H120.908L121.134 96.8076C120.638 96.9649 120.182 96.967 119.771 96.8131C119.021 96.5308 118.726 95.826 118.713 95.7958L118.698 95.7473C118.345 94.066 117.369 93.0223 117.359 93.0117C115.495 91.3691 114.488 91.0711 114.478 91.0685L114.183 90.9848L114.95 88.9314L115.212 89.0246C115.811 89.238 116.238 89.2295 116.478 88.999C117.023 88.4795 116.698 86.8807 116.54 86.3608L116.518 86.2877L117.153 83.6443H118.191V82.5356L120.033 79.2533H120.921L121.847 75.6619C121.745 75.5144 121.644 75.3316 121.541 75.1045C121.198 74.3495 121.138 73.6634 121.365 73.067C121.587 72.4824 122.027 72.1462 122.269 71.9982L122.275 69.5627C122.325 69.3383 122.515 68.5875 122.865 68.3541C123.105 68.1943 123.271 67.9928 123.273 67.9907L123.342 67.9294L124.436 67.2429L125 66.598C123.852 65.7511 121.967 63.5567 120.732 57.9566C120.732 57.9566 119.854 56.0751 118.097 55.573C118.096 55.573 118.046 55.5007 117.968 55.38Z"
          fill="#FF9D7A"
          fill-opacity="0.45"
        />
        <path
          d="M64.8885 35.0829C64.5336 35.6538 63.8547 35.8166 63.1987 35.9743C62.1823 36.2179 61.616 36.4071 61.7912 37.4593C61.9051 38.1399 61.7724 38.7083 61.3992 39.1491C60.8891 39.7506 60.0558 39.9487 59.5525 40.0138L59.9857 40.9656L60.6837 41.5242L60.4167 43.6626L60.54 45.7694C60.5456 45.8285 60.6676 47.3759 60.1175 48.2011L60.0818 48.2445L59.3701 48.9565L61.9102 52.6512C63.3233 52.6771 64.5323 54.4707 64.8261 54.9422C65.5067 55.0752 68.7682 55.7822 69.6686 57.3126L74.0519 54.8775L91.4018 63.3654L91.8868 62.6385L93.952 63.3272L92.6002 41.5769C92.4765 41.213 91.6437 38.5773 92.6818 36.399L88.9897 35.3732C88.9897 35.3732 88.1866 32.8587 84.0961 34.4949C80.9596 35.7494 82.2146 36.7536 82.2146 36.7536C82.2146 36.7536 84.222 38.2593 81.8384 39.2622C79.4547 40.2663 76.4436 37.8827 76.4436 37.8827C76.4436 37.8827 73.1817 38.7605 71.8014 35.1224C71.8014 35.1224 68.3027 34.8635 65.2584 33.6898C65.2414 34.1803 65.1423 34.676 64.8885 35.0829Z"
          fill="#FF9D7A"
          fill-opacity="0.45"
        />
        <path
          d="M93.2351 36.5529C92.1511 38.6763 93.1301 41.3881 93.1429 41.4221L93.1599 41.5025L94.2112 58.4191L113.026 57.6705L113.097 57.7139C113.1 57.7151 113.494 57.9417 113.851 57.8019C114.107 57.7015 114.305 57.4303 114.439 56.9946L114.532 56.691L114.824 56.8203C114.824 56.8203 115.091 56.9295 115.329 56.7939C115.569 56.6583 115.735 56.3089 115.81 55.7838L115.841 55.5666L116.06 55.5432C116.118 55.5368 117.069 55.4246 117.681 54.8966C117.301 54.2054 116.864 53.1672 117.343 52.6873L108.436 40.2667C108.436 40.2667 108.686 38.6359 109.941 40.5175C109.941 40.5175 112.074 44.1561 113.58 43.7794C115.085 43.4032 113.957 40.3917 113.957 40.3917L111.948 36.6281C111.948 36.6281 108.435 37.506 107.432 36.8785C106.429 36.2515 104.923 36.6281 104.923 36.6281C104.923 36.6281 100.783 39.0113 97.0187 36.8785L93.5055 36.6281L93.2351 36.5529Z"
          fill="#FF9D7A"
          fill-opacity="0.45"
        />
        <path
          d="M58.2878 24.8856L58.2815 24.9787C58.2679 25.1768 58.145 26.9325 57.8759 27.4694L57.0958 29.0181L56.3999 29.9466V31.0838L56.513 31.7623L57.2837 33.0831H57.7977L58.3639 34.2143L59.2648 35.3086L59.2796 35.3749C59.2949 35.4446 59.6605 37.0924 59.786 38.0973C59.8561 38.6585 59.7494 39.1125 59.6244 39.4314C60.0419 39.3612 60.6239 39.1924 60.9708 38.7826C61.2343 38.4697 61.3211 38.0672 61.2352 37.5523C60.9644 35.9297 62.1305 35.65 63.0679 35.4251C63.6388 35.2882 64.177 35.1589 64.4104 34.7844C64.6404 34.4154 64.7058 33.9329 64.6965 33.4593C63.2132 32.8153 61.9043 31.934 61.2628 30.7309C61.2628 30.7309 65.1522 28.2215 63.0194 26.8415L63.6464 24.8341L61.5136 23.8304L58.2785 24.8699L58.2878 24.8856Z"
          fill="#FF9D7A"
          fill-opacity="0.45"
        />
        <path
          d="M7.87188 57.5269L9.08515 54.0082L11.1946 52.6431L12.2217 46.3548L19.123 47.1077L19.6565 43.9061L11.3931 43.1282C10.5403 44.1846 8.86537 46.0572 7.43868 46.4139C7.43868 46.4139 6.18416 49.4254 3.6747 51.4324L2.42018 53.1885L0 56.6979L7.87188 57.5269Z"
          fill="#FF9D7A"
          fill-opacity="0.45"
        />
        <path
          d="M36.9541 32.2511C37.2632 32.5933 38.0662 33.5817 37.6891 34.2513C37.3945 34.7742 36.552 34.8737 35.0441 34.5604C34.7767 34.9447 34.0642 35.8523 33.2186 35.9875C32.9368 36.0325 32.6694 35.9922 32.4194 35.8672C32.05 36.8092 31.542 37.7883 31.0259 37.7883H29.1928L28.5912 38.9913L28.4798 39.0279C27.991 39.1916 27.6802 39.05 27.4953 38.9658C27.4562 38.948 27.403 38.9238 27.3809 38.9195C27.3801 38.9225 27.3639 38.9327 27.3359 38.9599C26.9231 39.3727 26.2327 39.9211 25.0037 39.9211C24.0382 39.9211 22.2451 40.5175 21.8948 40.637L20.7419 41.7903L20.3027 43.5473L40.2309 59.7158L40.2139 59.8692C40.2135 59.8756 40.1412 60.6383 40.6454 61.2236C41.0229 61.6611 41.6317 61.9021 42.4555 61.9395L42.5244 61.9429L42.5844 61.9774C42.6796 62.0331 44.7495 63.2485 44.772 64.659L50.6241 63.9567L64.2636 55.1096C63.7964 54.398 62.7544 53.1371 61.7873 53.2187L61.6236 53.2323L58.638 48.8889L59.6613 47.8656C60.0124 47.3087 60.0082 46.1962 59.9763 45.8094L59.8492 43.6434L60.0834 41.7674L59.5269 41.3218L58.8 39.7225L58.908 39.5874C58.9245 39.5661 59.3331 39.0309 59.2251 38.1675C59.1163 37.2994 58.8119 35.8829 58.7422 35.5632L57.8724 34.4949L57.449 33.6472H56.9596L55.9649 31.9059L55.8356 31.1067V29.7578L56.6293 28.6993L57.3707 27.2165C57.5285 26.9015 57.6598 25.746 57.7117 25.0293C57.6989 25.0071 57.687 24.9825 57.6747 24.9595H55.7413L52.1031 25.3358C52.1031 25.3358 50.3465 23.8304 47.7117 24.8337C45.0768 25.8374 43.3202 25.5866 43.3202 25.5866C43.3202 25.5866 41.3128 26.4649 40.0583 26.4649C38.8034 26.4649 37.4239 27.8448 37.4239 27.8448L36.9537 27.8023V32.2511H36.9541Z"
          fill="#FF9D7A"
          fill-opacity="0.45"
        />
        <path
          d="M19.7499 43.3479L19.7865 43.1286L19.8188 43.1549L20.232 41.5016L21.5869 40.1464L21.6477 40.1251C21.7365 40.0937 23.8396 39.3561 25.0039 39.3561C26.0119 39.3561 26.5662 38.931 26.937 38.5607C27.2596 38.2385 27.5538 38.3715 27.7289 38.4519C27.8658 38.5139 27.9861 38.5679 28.1944 38.5224L28.8444 37.2233H31.0261C31.2047 37.151 31.6778 36.2689 32.015 35.3396L32.154 34.9578L32.4635 35.221C32.6739 35.3995 32.892 35.4684 33.13 35.4297C33.7936 35.3234 34.4696 34.4311 34.6745 34.0965L34.7799 33.9239L34.9767 33.9682C36.8583 34.386 37.1572 34.0464 37.198 33.9737C37.3493 33.705 36.8715 32.9781 36.4681 32.5568L36.3898 32.4747V27.7513L34.6643 27.5944H31.2765C31.2765 27.5944 30.0297 25.7328 29.3945 25.8382C28.4117 26.0011 27.5126 29.351 27.5126 29.351C27.5126 29.351 25.8818 30.4805 24.3765 30.7313C22.8711 30.9826 21.4908 33.4916 21.4908 33.4916C21.4908 33.4916 18.8559 34.4949 19.86 37.2556C20.8637 40.0159 13.4616 41.8979 11.9559 42.3999C11.9559 42.3999 11.9002 42.4773 11.8066 42.601L19.7499 43.3479Z"
          fill="#FF9D7A"
          fill-opacity="0.45"
        />
      </svg>