<svg width="128" height="35" viewBox="0 0 128 35" fill="none" xmlns="http://www.w3.org/2000/svg">
  <path d="M2.02596 34.0271H0V19.7182H2.02596V26.3436H9.47274V19.7182H11.4987V34.0271H9.47274V28.4808H2.02596V34.0271Z" fill="black" />
  <path fillRule="evenodd" clipRule="evenodd" d="M113.156 9.53674e-06L127.428 29.8383H11.5004V28.0481H124.606L113.129 4.58749L103.173 23.6528L97.7418 14.2938L91.1935 25.7606L89.5378 24.5511L97.7431 10.4601L103.122 19.7287L113.156 9.53674e-06Z" fill="#FF9D7A" />
  <path d="M25.9718 31.8863V34.0271H16.674V19.4232H25.9718V21.564H19.1309V26.1847H24.8643V28.2654H19.1309V31.8863H25.9718Z" fill="black" />
  <path d="M32.4383 33.8345H30.3646V19.7182H34.9058C36.2005 19.7182 37.3062 20.1403 38.223 20.9846C39.1379 21.8289 39.5971 22.9805 39.5971 24.436C39.5971 25.4022 39.3923 26.2535 38.9807 26.9883C38.5692 27.7231 38.0092 28.3025 37.2992 28.7281L40.1571 33.6985L40.1005 33.8345H37.9527L35.3933 29.4258C35.1319 29.477 34.814 29.5035 34.4395 29.5035H32.44V33.8345H32.4383ZM34.5684 21.73H32.4383V27.4917H34.194C35.1655 27.4917 35.9568 27.2179 36.5662 26.6704C37.1755 26.1228 37.4811 25.3969 37.4811 24.4943C37.4811 23.5917 37.2038 22.9064 36.6492 22.4348C36.0945 21.9649 35.4004 21.7282 34.5667 21.7282L34.5684 21.73Z" fill="black" />
  <path d="M54.2416 31.8104V33.9317H44.4951V19.4603H54.2416V21.5816H47.0704V26.1599H53.0812V28.2212H47.0704V31.8086H54.2416V31.8104Z" fill="black" />
  <path d="M60.558 34.4175H58.3342V19.0894H58.5144L68.6937 29.4806V19.2766H70.9174V34.6047H70.7373L60.558 24.2558V34.4192V34.4175Z" fill="black" />
  <path d="M75.3262 23.4857C75.3262 22.3129 75.759 21.382 76.6245 20.6896C77.49 19.9973 78.5939 19.6528 79.9345 19.6528C81.6938 19.6528 83.1651 20.2516 84.3486 21.4509L82.6176 22.9982C81.7521 22.2069 80.8442 21.8113 79.8922 21.8113C79.2863 21.8113 78.7741 21.9596 78.3555 22.2564C77.9368 22.5531 77.7284 22.9647 77.7284 23.491C77.7284 23.7542 77.7973 23.9944 77.9351 24.2117C78.0729 24.4289 78.3184 24.6533 78.6734 24.8829C79.0284 25.1143 79.3464 25.3015 79.629 25.4463C79.9116 25.5912 80.3479 25.8084 80.9413 26.0981C81.1427 26.1899 81.2964 26.2624 81.3971 26.3154C83.741 27.4617 84.912 28.8518 84.912 30.4856C84.912 31.6178 84.4687 32.5646 83.582 33.3206C82.6953 34.0783 81.5295 34.4563 80.0882 34.4563C78.9207 34.4563 77.868 34.2408 76.93 33.8063C75.9921 33.3735 75.2344 32.8172 74.6586 32.1407L76.3896 30.5969C77.5006 31.7326 78.7476 32.2996 80.1324 32.2996C80.8106 32.2996 81.3688 32.1212 81.8086 31.7662C82.2484 31.4112 82.4692 30.982 82.4692 30.4821C82.4692 29.9292 82.1742 29.4276 81.5825 28.9807C80.9908 28.5321 80.1836 28.0781 79.1591 27.6171C77.9051 27.0501 76.953 26.4372 76.303 25.7802C75.6548 25.1213 75.3298 24.3583 75.3298 23.4875L75.3262 23.4857Z" fill="black" />
  <path d="M101.872 23.4857C101.872 22.3129 102.305 21.382 103.17 20.6896C104.036 19.9973 105.14 19.6528 106.48 19.6528C108.24 19.6528 109.711 20.2516 110.894 21.4509L109.163 22.9982C108.298 22.2069 107.39 21.8113 106.438 21.8113C105.832 21.8113 105.32 21.9596 104.901 22.2564C104.483 22.5531 104.274 22.9647 104.274 23.491C104.274 23.7542 104.343 23.9944 104.481 24.2117C104.619 24.4289 104.864 24.6533 105.219 24.8829C105.574 25.1143 105.892 25.3015 106.175 25.4463C106.457 25.5912 106.894 25.8084 107.487 26.0981C107.689 26.1899 107.842 26.2624 107.943 26.3154C110.287 27.4617 111.458 28.8518 111.458 30.4856C111.458 31.6178 111.015 32.5646 110.128 33.3206C109.241 34.0783 108.075 34.4563 106.634 34.4563C105.467 34.4563 104.414 34.2408 103.476 33.8063C102.538 33.3735 101.78 32.8172 101.204 32.1407L102.935 30.5969C104.046 31.7326 105.293 32.2996 106.678 32.2996C107.357 32.2996 107.915 32.1212 108.355 31.7662C108.794 31.4112 109.015 30.982 109.015 30.4821C109.015 29.9292 108.72 29.4276 108.128 28.9807C107.537 28.5321 106.73 28.0781 105.705 27.6171C104.451 27.0501 103.499 26.4372 102.849 25.7802C102.201 25.1213 101.876 24.3583 101.876 23.4875L101.872 23.4857Z" fill="black" />
  <path d="M94.2611 34.1225H92.0144V28.7953L86.5883 19.697L86.6889 19.5574H89.077L93.1872 26.6209L97.2356 19.5574H99.5848L99.6661 19.697L94.2611 28.7564V34.1242V34.1225Z" fill="black" />
  <path d="M2.02596 34.4096H0V20.1007H2.02596V26.7261H9.47274V20.1007H11.4987V34.4096H9.47274V28.8633H2.02596V34.4096Z" fill="black" />
  <path d="M25.9718 32.2688V34.4096H16.674V19.8057H25.9718V21.9465H19.1309V26.5672H24.8643V28.6479H19.1309V32.2688H25.9718Z" fill="black" />
  <path d="M32.4383 34.217H30.3646V20.1007H34.9058C36.2005 20.1007 37.3062 20.5228 38.223 21.3671C39.1379 22.2114 39.5971 23.363 39.5971 24.8185C39.5971 25.7847 39.3923 26.636 38.9807 27.3708C38.5692 28.1056 38.0092 28.6849 37.2992 29.1106L40.1571 34.081L40.1005 34.217H37.9527L35.3933 29.8083C35.1319 29.8595 34.814 29.886 34.4395 29.886H32.44V34.217H32.4383ZM34.5684 22.1125H32.4383V27.8742H34.194C35.1655 27.8742 35.9568 27.6004 36.5662 27.0529C37.1755 26.5053 37.4811 25.7794 37.4811 24.8768C37.4811 23.9742 37.2038 23.2889 36.6492 22.8172C36.0945 22.3474 35.4004 22.1107 34.5667 22.1107L34.5684 22.1125Z" fill="black" />
  <path d="M54.2416 32.1929V34.3142H44.4951V19.8428H54.2416V21.9641H47.0704V26.5424H53.0812V28.6037H47.0704V32.1911H54.2416V32.1929Z" fill="black" />
  <path d="M60.558 34.7999H58.3342V19.4719H58.5144L68.6937 29.8631V19.6591H70.9174V34.9872H70.7373L60.558 24.6383V34.8017V34.7999Z" fill="black" />
  <path d="M75.3262 23.8682C75.3262 22.6954 75.759 21.7645 76.6245 21.0722C77.49 20.3798 78.5939 20.0353 79.9345 20.0353C81.6938 20.0353 83.1651 20.6341 84.3486 21.8334L82.6176 23.3807C81.7521 22.5894 80.8442 22.1938 79.8922 22.1938C79.2863 22.1938 78.7741 22.3421 78.3555 22.6389C77.9368 22.9356 77.7284 23.3472 77.7284 23.8735C77.7284 24.1367 77.7973 24.3769 77.9351 24.5942C78.0729 24.8114 78.3184 25.0358 78.6734 25.2654C79.0284 25.4968 79.3464 25.684 79.629 25.8288C79.9116 25.9737 80.3479 26.1909 80.9413 26.4806C81.1427 26.5725 81.2964 26.6449 81.3971 26.6979C83.741 27.8442 84.912 29.2343 84.912 30.8681C84.912 32.0003 84.4687 32.9471 83.582 33.7031C82.6953 34.4608 81.5295 34.8388 80.0882 34.8388C78.9207 34.8388 77.868 34.6233 76.93 34.1888C75.9921 33.7561 75.2344 33.1997 74.6586 32.5232L76.3896 30.9794C77.5006 32.1151 78.7476 32.6821 80.1324 32.6821C80.8106 32.6821 81.3688 32.5037 81.8086 32.1487C82.2484 31.7937 82.4692 31.3645 82.4692 30.8646C82.4692 30.3117 82.1742 29.8101 81.5825 29.3632C80.9908 28.9146 80.1836 28.4606 79.1591 27.9996C77.9051 27.4326 76.953 26.8197 76.303 26.1627C75.6548 25.5038 75.3298 24.7408 75.3298 23.87L75.3262 23.8682Z" fill="black" />
  <path d="M101.872 23.8682C101.872 22.6954 102.305 21.7645 103.17 21.0722C104.036 20.3798 105.14 20.0353 106.48 20.0353C108.24 20.0353 109.711 20.6341 110.894 21.8334L109.163 23.3807C108.298 22.5894 107.39 22.1938 106.438 22.1938C105.832 22.1938 105.32 22.3421 104.901 22.6389C104.483 22.9356 104.274 23.3472 104.274 23.8735C104.274 24.1367 104.343 24.3769 104.481 24.5942C104.619 24.8114 104.864 25.0358 105.219 25.2654C105.574 25.4968 105.892 25.684 106.175 25.8288C106.457 25.9737 106.894 26.1909 107.487 26.4806C107.689 26.5725 107.842 26.6449 107.943 26.6979C110.287 27.8442 111.458 29.2343 111.458 30.8681C111.458 32.0003 111.015 32.9471 110.128 33.7031C109.241 34.4608 108.075 34.8388 106.634 34.8388C105.467 34.8388 104.414 34.6233 103.476 34.1888C102.538 33.7561 101.78 33.1997 101.204 32.5232L102.935 30.9794C104.046 32.1151 105.293 32.6821 106.678 32.6821C107.357 32.6821 107.915 32.5037 108.355 32.1487C108.794 31.7937 109.015 31.3645 109.015 30.8646C109.015 30.3117 108.72 29.8101 108.128 29.3632C107.537 28.9146 106.73 28.4606 105.705 27.9996C104.451 27.4326 103.499 26.8197 102.849 26.1627C102.201 25.5038 101.876 24.7408 101.876 23.87L101.872 23.8682Z" fill="black" />
  <path d="M94.2611 34.505H92.0144V29.1778L86.5883 20.0795L86.6889 19.9399H89.077L93.1872 27.0034L97.2356 19.9399H99.5848L99.6661 20.0795L94.2611 29.1389V34.5067V34.505Z" fill="black" />
  <path fillRule="evenodd" clipRule="evenodd" d="M9.4965 29.8059H1.974V28.0209H9.4965V29.8059Z" fill="#FF9D7A" />
</svg>